<?xml version="1.0" standalone="no"?>
<!DOCTYPE svg PUBLIC "-//W3C//DTD SVG 20010904//EN"
 "http://www.w3.org/TR/2001/REC-SVG-20010904/DTD/svg10.dtd">
<svg version="1.0" xmlns="http://www.w3.org/2000/svg"
 width="300.000000pt" height="300.000000pt" viewBox="0 0 300.000000 300.000000"
 preserveAspectRatio="xMidYMid meet">
<metadata>
Created by potrace 1.10, written by Peter Selinger 2001-2011
</metadata>
<g transform="translate(0.000000,300.000000) scale(0.100000,-0.100000)"
fill="#000000" stroke="none">
<path d="M545 2518 l-170 -133 -6 -110 c-3 -61 -6 -422 -7 -804 -1 -382 -4
-696 -6 -698 -2 -2 -81 -17 -175 -32 -95 -16 -175 -31 -178 -35 -17 -16 14
-17 104 -3 54 9 121 19 148 23 28 4 62 13 78 21 l27 14 0 -69 c0 -39 5 -75 13
-85 24 -32 314 -242 426 -309 107 -63 112 -68 79 -68 -20 0 -72 -7 -116 -15
-84 -16 -107 -12 -162 25 -31 21 -272 160 -277 160 -3 0 -39 20 -80 45 -40 25
-76 45 -78 45 -2 0 -30 15 -62 34 -66 38 -103 52 -103 38 0 -6 82 -56 182
-112 101 -57 247 -140 325 -186 100 -59 152 -84 175 -84 51 0 266 43 1283 261
445 95 710 160 723 176 6 9 12 36 12 60 0 33 -5 46 -22 56 -126 78 -379 245
-400 265 -15 14 -25 29 -22 33 3 5 7 309 10 677 4 543 2 671 -9 686 -11 14
-77 27 -367 71 -195 29 -519 81 -720 115 -201 34 -385 64 -410 67 -45 4 -46 3
-215 -129z m360 92 c66 -11 212 -36 325 -55 276 -47 468 -77 760 -120 134 -20
248 -39 252 -41 4 -3 8 -218 8 -478 l0 -473 -27 -6 c-16 -3 -115 -15 -222 -28
-188 -23 -193 -23 -207 -5 -7 10 -15 22 -16 27 -2 4 -39 4 -83 -1 -44 -5 -163
-19 -264 -30 -100 -12 -189 -19 -197 -16 -8 3 -14 1 -14 -5 0 -6 -25 -10 -62
-9 -35 1 -67 1 -73 -1 -5 -1 -23 -3 -40 -4 -99 -7 -261 -30 -266 -38 -13 -18
-18 201 -18 696 0 465 -3 545 -18 601 -4 16 -1 18 18 12 13 -3 78 -15 144 -26z
m-173 -12 c2 -37 6 -1139 6 -1518 l0 -245 -26 -28 c-19 -20 -22 -27 -10 -27 9
0 22 7 29 17 13 15 15 12 20 -23 3 -21 7 85 8 236 1 151 5 281 10 288 5 9 64
21 162 34 l154 21 38 -22 c21 -13 42 -19 45 -15 4 4 2 9 -4 11 -6 2 -19 10
-29 17 -15 11 -2 14 91 21 60 5 138 9 174 10 113 2 346 28 325 36 -17 7 -16 8
6 8 34 1 78 -33 63 -48 -10 -11 -487 -81 -550 -81 -31 0 -35 3 -32 22 3 24 12
27 133 47 l60 10 -55 -5 c-124 -10 -140 -15 -146 -40 -7 -28 -4 -28 -207 -54
-165 -21 -177 -24 -177 -43 0 -6 -12 -25 -27 -41 -16 -17 -21 -25 -13 -19 22
20 34 15 56 -25 12 -20 41 -58 64 -85 l42 -47 -4 -129 c-1 -71 -6 -132 -9
-135 -3 -3 -43 -12 -90 -19 -93 -14 -95 -16 -98 -110 l-1 -38 -35 26 -34 27 5
986 c6 881 8 988 22 1000 25 19 32 15 34 -20z m-67 -106 c0 -53 -1 -545 -3
-1094 l-2 -996 -140 105 -140 105 2 881 3 882 138 107 c76 60 139 108 140 108
1 0 2 -44 2 -98z m88 -1082 c3 -48 1 -74 -3 -60 -8 25 -13 157 -6 149 2 -2 6
-42 9 -89z m1493 -367 c-2 -2 -102 -22 -223 -44 -347 -63 -912 -169 -986 -185
-38 -8 -73 -14 -78 -14 -5 0 -9 44 -9 98 l0 99 53 11 c62 14 393 71 816 142
271 46 305 50 313 36 5 -9 17 -16 26 -16 16 1 16 2 -1 14 -16 12 -16 14 -1 20
25 10 34 7 34 -9 0 -8 7 -15 15 -15 9 0 15 9 15 21 0 21 -3 21 -67 15 -38 -4
-317 -49 -621 -101 -304 -52 -559 -95 -567 -95 -10 0 -15 12 -16 38 -2 30 -3
32 -6 10 -2 -16 -7 -28 -11 -28 -10 1 -74 85 -96 125 -13 25 -15 40 -8 47 9 9
44 -22 100 -91 11 -14 11 -12 2 7 -7 13 -28 41 -47 63 -20 22 -34 41 -32 44
10 9 263 38 364 41 153 4 570 66 593 88 10 9 34 16 53 17 19 0 113 10 209 22
l175 22 3 -189 c1 -104 1 -191 -2 -193z m17 -47 l16 -24 -82 -11 c-45 -7 -273
-48 -507 -91 -562 -105 -704 -130 -728 -130 -15 0 -18 5 -14 25 3 17 11 25 26
25 11 0 102 16 201 35 99 19 306 58 460 86 154 28 335 61 402 73 112 21 125
22 145 8 21 -14 22 -14 11 -1 -16 20 -7 29 28 29 17 0 32 -8 42 -24z m217
-153 c94 -62 149 -104 140 -107 -8 -2 -51 -12 -95 -21 -44 -9 -124 -26 -179
-37 -83 -17 -104 -19 -138 -9 -22 7 -37 15 -34 19 15 15 75 28 90 20 21 -12
20 -26 -1 -31 -10 -2 2 -2 27 1 25 3 67 13 94 24 26 10 57 16 67 13 13 -5 19
-1 19 10 0 11 5 15 16 11 9 -3 12 -2 9 5 -4 6 -1 10 6 8 29 -3 43 1 33 11 -6
6 -21 6 -42 1 -20 -6 -32 -6 -32 0 0 5 -5 9 -11 9 -5 0 -7 -4 -4 -10 3 -5 1
-10 -5 -10 -6 0 -9 -4 -6 -9 3 -5 -7 -14 -24 -19 -24 -9 -33 -8 -45 5 -19 19
-6 37 19 27 14 -5 15 -9 4 -15 -9 -6 -6 -9 10 -9 16 0 22 5 20 17 -2 10 8 22
22 30 42 22 118 -2 106 -34 -6 -15 10 -18 19 -3 10 15 -13 38 -59 62 -23 12
-61 38 -86 58 -25 20 -53 40 -64 44 -23 8 -111 -7 -576 -100 -409 -82 -582
-115 -733 -139 -114 -18 -141 -29 -132 -53 3 -9 -18 7 -47 36 -64 62 -83 70
-24 10 23 -24 69 -79 102 -123 34 -44 74 -92 89 -107 l28 -28 -27 0 c-14 0
-28 0 -31 0 -3 0 -18 -6 -34 -15 l-29 -15 -95 103 -94 102 5 62 4 62 67 10
c36 6 89 13 118 16 68 6 168 23 608 105 604 114 637 119 705 117 64 -3 67 -4
220 -104z m-117 43 c18 -7 41 -23 52 -36 l20 -22 -25 3 c-14 2 -26 10 -26 17
-2 21 -3 22 -28 12 -21 -7 -25 -5 -29 16 -5 28 -6 28 36 10z m-55 -19 c23 -15
12 -28 -20 -25 -36 3 -49 34 -14 33 11 0 27 -4 34 -8z m-68 -22 c7 -18 3 -20
-34 -20 -42 0 -66 9 -66 26 0 13 48 11 52 -3 3 -8 9 -8 24 1 15 10 15 11 2 7
-10 -3 -18 -1 -18 5 0 18 32 5 40 -16z m-193 -22 c-9 -9 -20 -12 -28 -8 -9 6
-8 11 6 21 23 17 42 6 22 -13z m63 12 c0 -7 8 -18 17 -24 16 -8 14 -10 -10
-16 -15 -4 -34 -4 -43 -1 -17 7 -13 32 5 29 6 -2 10 0 10 5 -3 14 1 22 11 22
6 0 10 -7 10 -15z m268 -5 c7 -11 18 -17 27 -14 8 4 27 3 43 -1 l27 -7 -29
-15 c-24 -12 -30 -13 -37 -1 -8 12 -13 4 -10 -16 1 -5 -5 -4 -13 3 -8 7 -13
18 -10 25 4 11 -4 12 -38 6 -23 -5 -44 -13 -46 -19 -2 -6 -9 -8 -14 -5 -7 5
-8 2 -3 -6 5 -8 20 -10 42 -7 47 8 38 -14 -13 -31 -28 -10 -44 -10 -56 -3 -14
9 -18 8 -18 -4 0 -8 -11 -17 -25 -21 -29 -7 -75 2 -75 16 0 14 40 24 123 29
10 1 15 6 12 12 -4 6 -14 8 -22 4 -9 -3 -27 2 -41 11 -22 14 -23 18 -9 25 9 6
33 6 56 0 30 -6 41 -6 41 3 0 10 26 22 70 35 3 0 11 -8 18 -19z m-378 -11 c0
-6 -9 -8 -22 -4 -18 5 -20 4 -8 -4 13 -9 13 -11 -1 -11 -31 0 -29 26 2 28 16
1 29 -3 29 -9z m-62 -16 c2 -8 -6 -13 -22 -13 -25 0 -33 10 -19 24 10 10 36 3
41 -11z m-119 -27 c-2 -2 -14 -7 -26 -10 -17 -5 -23 -3 -23 8 0 15 42 27 49
13 1 -5 1 -10 0 -11z m57 9 c-6 -17 4 -18 57 -6 26 6 37 6 37 -3 0 -6 5 -3 11
7 11 18 64 24 74 8 8 -13 -4 -19 -50 -22 -22 -1 -46 -7 -52 -12 -9 -6 -18 -5
-28 3 -13 11 -14 10 -9 -4 5 -13 -1 -16 -31 -16 -28 0 -36 3 -32 14 3 8 1 16
-5 18 -16 6 0 28 19 28 9 0 13 -6 9 -15z m304 -9 c0 -20 -57 -31 -77 -15 -14
12 -13 14 8 20 42 12 69 10 69 -5z m-430 -7 c0 -6 7 -17 15 -25 21 -22 19 -37
-5 -31 -11 3 -20 1 -20 -5 0 -5 -8 -8 -17 -6 -24 4 -18 22 9 30 22 6 21 6 -4
7 -43 2 -35 37 10 40 6 1 12 -4 12 -10z m337 -15 c5 -16 -55 -23 -68 -8 -8 9
-4 14 13 17 33 6 51 4 55 -9z m-404 -8 c3 -8 -2 -16 -13 -19 -21 -5 -30 0 -30
20 0 17 36 17 43 -1z m155 2 c-5 -15 -48 -24 -48 -10 0 14 12 22 33 22 10 0
17 -5 15 -12z m-209 -11 c6 -8 8 -17 3 -21 -4 -4 6 -6 22 -4 16 2 31 -2 33 -9
3 -8 -12 -11 -44 -11 -26 0 -42 3 -35 5 10 4 8 9 -7 20 -12 8 -21 18 -21 24 0
14 36 11 49 -4z m380 -1 c9 -11 6 -15 -14 -18 -27 -6 -41 5 -30 22 9 14 31 12
44 -4z m-437 -37 c-21 -19 -60 -18 -80 4 l-21 22 35 -1 c19 -1 37 2 40 8 3 5
12 1 19 -9 8 -10 11 -21 7 -24z m373 20 c0 -17 -47 -19 -52 -2 -2 6 4 13 14
16 26 7 38 2 38 -14z m405 -4 c0 -18 -51 -30 -61 -13 -10 15 -2 24 26 30 25 6
35 1 35 -17z m337 -11 c3 -8 3 -17 1 -19 -9 -9 -482 -113 -1038 -229 -568
-118 -688 -141 -695 -135 -2 2 -5 13 -7 24 -3 16 8 22 77 37 112 25 295 65
390 84 78 15 125 36 125 53 0 5 -13 4 -30 -2 -25 -9 -33 -9 -47 6 -20 20 -16
25 23 33 22 4 36 0 55 -18 14 -14 28 -31 31 -38 4 -12 26 -9 124 14 344 81
828 190 891 201 24 4 45 11 49 16 7 12 43 -7 51 -27z m-593 14 c-4 -7 -3 -8 4
-4 7 4 20 2 29 -3 10 -6 16 -11 13 -11 -3 -1 -56 -12 -117 -24 -108 -22 -113
-22 -113 -4 0 12 7 18 22 18 12 0 37 5 55 12 28 10 36 10 42 -1 6 -9 10 -7 14
8 3 15 13 21 32 21 17 0 24 -4 19 -12z m-613 -50 c-8 -8 -40 -15 -38 -7 1 3
-4 13 -11 22 -24 28 -3 39 28 15 15 -13 25 -26 21 -30z m399 42 c0 -5 1 -13 3
-17 3 -12 -62 -13 -69 -1 -4 6 0 14 7 19 19 12 59 11 59 -1z m-80 -21 c0 -17
-5 -20 -32 -18 -50 4 -55 11 -17 25 47 17 49 17 49 -7z m-400 -9 c0 -21 -58
-34 -77 -18 -27 22 -8 35 50 35 19 0 27 -5 27 -17z m-110 -5 c8 -10 9 -19 4
-25 -12 -11 -66 -16 -82 -7 -17 11 -15 30 3 23 8 -3 15 0 15 6 0 9 3 9 11 1 6
-6 18 -9 26 -6 12 5 12 7 1 14 -8 5 -9 9 -2 9 6 0 17 -7 24 -15z m358 5 c36 4
56 3 62 -6 8 -8 6 -14 -6 -18 -24 -9 -54 -7 -54 3 0 6 -9 9 -20 8 -11 -1 -20
-5 -20 -10 0 -5 7 -7 15 -3 8 3 15 1 15 -3 0 -5 -19 -11 -42 -13 -44 -5 -72 6
-65 26 4 13 50 25 57 16 3 -4 29 -4 58 0z m512 -5 c10 -12 10 -16 -1 -19 -28
-10 -308 -75 -406 -95 -118 -24 -153 -26 -153 -8 0 8 82 30 238 65 130 29 251
57 267 62 42 11 41 12 55 -5z m-260 -15 c0 -12 -64 -29 -68 -18 -2 4 -11 1
-19 -8 -9 -8 -22 -13 -29 -10 -7 3 -16 1 -19 -4 -9 -14 -49 -12 -64 3 -10 10
-11 9 -6 -5 5 -13 -4 -18 -46 -27 -45 -10 -54 -9 -71 6 -14 13 -16 18 -6 25
21 13 65 9 72 -7 8 -22 26 -18 26 5 0 16 7 20 33 20 18 0 38 -5 45 -12 12 -12
13 -10 16 15 2 20 136 37 136 17z m785 -12 c-4 -13 -10 -26 -14 -29 -8 -8
-417 -102 -786 -180 -450 -96 -742 -159 -832 -179 -113 -27 -115 -27 -111 12
l3 31 100 17 c153 26 1194 245 1425 299 113 27 209 49 213 50 5 0 5 -9 2 -21z
m-1492 -3 c7 -16 3 -20 -35 -29 -23 -5 -28 -3 -28 13 0 28 54 42 63 16z m348
-32 c20 -27 41 -58 48 -71 11 -20 18 -23 54 -18 31 4 36 3 17 -3 -49 -17 -68
-12 -90 24 -12 19 -25 33 -30 30 -4 -3 -13 2 -20 10 -7 8 -17 12 -23 8 -6 -3
-7 -1 -3 5 4 7 3 12 -3 12 -6 0 -15 10 -22 21 -8 15 -8 19 0 15 6 -4 11 -2 11
3 0 25 28 8 61 -36z m-425 12 c-1 -32 -40 -45 -63 -22 -21 21 -6 40 28 35 16
-3 29 -1 29 4 0 4 2 8 4 8 2 0 3 -11 2 -25z m309 5 c0 -19 -65 -27 -76 -9 -13
21 1 30 39 27 25 -2 37 -8 37 -18z m-445 -4 c0 -8 26 -43 58 -77 66 -74 107
-129 95 -129 -4 0 -18 -3 -29 -6 -18 -5 -30 6 -70 67 -82 122 -86 129 -80 144
7 19 26 20 26 1z m338 -17 c3 -19 -36 -33 -62 -23 -19 7 -21 30 -3 38 24 10
62 1 65 -15z m-88 -14 c0 -26 -60 -34 -80 -10 -10 12 -7 15 17 20 15 4 33 8
38 10 15 4 25 -4 25 -20z m-512 -12 c21 -15 76 -71 125 -124 l87 -97 0 -56 c0
-38 -4 -56 -12 -56 -7 0 -64 31 -126 68 l-114 68 -4 112 c-2 62 -2 112 2 112
3 0 22 -12 42 -27z m308 -106 c15 -20 25 -40 22 -42 -8 -8 -129 155 -123 166
6 8 27 -17 101 -124z m448 114 c16 -18 16 -19 -11 -26 -17 -4 -29 -2 -31 4 -5
15 -23 14 -19 0 4 -21 -24 -21 -30 0 -3 12 -12 21 -21 21 -12 0 -13 -3 -4 -12
7 -7 12 -15 12 -19 0 -13 -44 -18 -59 -6 -12 10 -14 9 -8 -5 4 -12 -2 -19 -25
-27 -46 -16 -66 -13 -73 10 -9 29 11 41 55 34 28 -5 40 -2 54 14 14 15 30 20
68 19 27 0 52 3 55 6 10 10 19 7 37 -13z m-341 -25 c4 -10 -4 -15 -24 -18 -31
-5 -61 16 -37 25 25 10 56 7 61 -7z m40 -30 c24 -18 21 -36 -5 -37 -13 0 -31
-2 -40 -4 -15 -3 -26 10 -28 33 -1 4 9 10 22 14 32 9 31 9 51 -6z m270 -20
c15 -22 15 -25 1 -30 -25 -10 -41 -5 -19 5 16 7 13 8 -15 5 -36 -4 -70 8 -70
24 0 10 23 17 61 19 18 1 32 -7 42 -23z m-109 -29 l21 -23 -44 2 c-41 2 -66
18 -55 36 10 16 57 7 78 -15z m-107 -14 c6 -18 -67 -29 -78 -12 -6 10 -2 16
14 21 31 9 60 5 64 -9z"/>
<path d="M816 2524 c-3 -9 -6 -264 -6 -569 0 -466 2 -554 14 -564 15 -13 0
-14 441 34 121 13 283 29 360 34 367 27 467 33 471 29 2 -3 -51 -11 -118 -18
-124 -13 -210 -27 -173 -29 24 -1 155 14 270 30 59 9 75 14 60 21 -16 7 -15 8
7 5 60 -9 59 -21 56 433 l-3 414 -120 17 c-66 10 -300 43 -520 74 -220 31
-466 68 -548 81 -174 28 -183 29 -191 8z m549 -93 c433 -60 790 -112 790 -115
0 0 -1 -162 -3 -358 l-4 -358 -51 0 c-71 0 -445 -30 -1012 -80 -121 -11 -226
-20 -232 -20 -10 0 -13 88 -13 408 0 225 3 451 7 502 l6 92 36 -5 c20 -3 234
-32 476 -66z m-538 -163 c-1 -40 -3 -8 -3 72 0 80 2 112 3 73 2 -40 2 -106 0
-145z m1348 -326 c-11 -11 -12 7 -6 118 l6 115 3 -114 c1 -62 0 -116 -3 -119z
m-1348 -365 c-2 -23 -3 -1 -3 48 0 50 1 68 3 42 2 -26 2 -67 0 -90z m1343 -13
c0 -30 -21 -40 -95 -49 -33 -4 -71 -8 -85 -10 -43 -7 -231 -23 -335 -30 -55
-4 -158 -13 -230 -20 -551 -58 -572 -60 -589 -43 -10 10 -16 32 -15 55 1 21 4
29 6 19 3 -10 8 -14 12 -9 3 6 75 13 161 17 85 4 187 11 225 16 39 5 117 11
174 15 57 3 150 12 205 19 56 8 108 14 116 14 13 -1 111 7 310 25 19 2 59 3
88 3 48 0 52 -1 52 -22z"/>
<path d="M901 1995 c1 -239 6 -435 9 -435 4 0 5 22 2 49 l-4 49 108 6 c60 4
161 11 224 16 63 5 165 12 225 15 172 9 175 10 175 49 l0 33 77 7 c42 3 87 6
100 6 33 0 29 -28 -4 -33 -16 -2 0 -5 35 -6 51 -1 64 2 69 17 4 9 11 20 17 24
17 12 -130 9 -349 -7 -110 -7 -307 -17 -438 -21 l-237 -7 0 286 c1 240 3 287
15 287 8 0 103 -11 212 -25 280 -35 793 -93 891 -101 l82 -7 0 36 c0 33 -3 37
-32 41 -35 6 -259 36 -648 86 -129 17 -267 37 -307 44 -40 7 -75 11 -78 8 -3
-3 -5 -23 -5 -44 0 -37 -20 -53 -35 -28 -4 6 -10 8 -15 5 -5 -3 -21 -3 -35 1
-21 5 -25 12 -25 41 0 32 2 35 23 29 12 -3 25 -6 30 -6 4 0 7 -12 8 -27 l1
-28 9 30 c10 36 0 45 -59 45 l-43 0 2 -435z m217 395 c7 0 12 -14 12 -35 0
-19 -4 -35 -10 -35 -5 0 -10 14 -10 30 0 17 -4 30 -9 30 -4 0 -6 -11 -3 -25 3
-20 0 -25 -17 -25 -17 0 -21 6 -21 36 0 33 2 36 23 30 12 -3 28 -6 35 -6z m82
-40 c0 -27 -3 -30 -30 -30 -27 0 -30 3 -30 30 0 27 3 30 30 30 27 0 30 -3 30
-30z m60 -11 c0 -24 -4 -29 -25 -29 -22 0 -25 4 -25 34 0 30 2 33 25 28 20 -3
25 -10 25 -33z m60 -10 c0 -22 -5 -29 -19 -29 -25 0 -34 15 -27 45 9 35 46 22
46 -16z m58 -6 c3 -27 1 -31 -17 -26 -28 7 -31 66 -3 61 11 -2 18 -14 20 -35z
m38 16 c4 -8 9 -7 15 2 5 8 9 10 10 4 0 -5 2 -20 3 -33 2 -19 -1 -23 -23 -20
-20 2 -27 9 -29 31 -3 27 11 37 24 16z m84 -28 c0 -24 -4 -29 -20 -28 -15 1
-20 8 -20 29 0 21 5 28 20 28 15 0 20 -7 20 -29z m50 -6 c0 -16 -6 -25 -15
-25 -9 0 -15 9 -15 25 0 16 6 25 15 25 9 0 15 -9 15 -25z m40 -11 c0 -15 -6
-24 -15 -24 -10 0 -15 10 -15 30 0 22 4 28 15 24 8 -4 15 -17 15 -30z m78 -8
c3 -20 0 -27 -10 -24 -7 3 -14 17 -16 32 -3 20 0 27 10 24 7 -3 14 -17 16 -32z
m73 -7 c7 -23 7 -23 8 -1 1 18 7 22 31 22 22 0 33 -6 40 -22 7 -18 9 -19 9 -5
1 27 21 20 21 -8 0 -32 -27 -33 -40 -2 -7 17 -9 18 -9 5 -1 -13 -9 -18 -30
-18 -45 0 -61 10 -61 37 0 31 22 26 31 -8z m157 5 c28 -8 32 -54 5 -53 -11 0
-13 3 -5 6 6 2 12 11 12 20 0 12 -2 12 -16 -1 -22 -23 -34 -20 -34 9 0 27 3
28 38 19z m72 -35 c0 -10 -7 -19 -15 -19 -9 0 -15 9 -15 25 0 18 4 23 15 19 8
-4 15 -15 15 -25z m70 -10 c0 -10 -7 -19 -15 -19 -9 0 -15 9 -15 25 0 18 4 23
15 19 8 -4 15 -15 15 -25z m41 16 c3 2 6 -7 7 -19 1 -19 -2 -23 -18 -19 -13 4
-20 14 -20 30 0 20 3 23 13 14 8 -6 16 -9 18 -6z m-171 -480 c0 -18 -30 -20
-31 -2 0 10 -2 10 -6 0 -7 -18 -23 -16 -23 2 0 10 10 15 30 15 20 0 30 -5 30
-15z m-307 -14 c4 -1 7 -5 7 -10 0 -6 -9 -8 -20 -6 -11 2 -20 0 -20 -6 0 -5
11 -9 24 -9 18 0 26 7 29 23 4 20 4 19 6 -4 1 -23 -4 -27 -31 -32 -41 -6 -48
-2 -48 29 0 19 4 23 23 20 12 -3 25 -5 30 -5z m-302 -28 l2 -28 4 26 c4 26 6
26 89 28 78 2 84 0 84 -19 0 -11 2 -20 4 -20 14 0 36 14 36 22 0 6 -6 5 -15
-2 -12 -10 -15 -10 -15 4 0 10 9 16 25 16 20 0 25 -5 25 -24 0 -23 -2 -24
-117 -30 -65 -4 -139 -9 -165 -12 -48 -6 -48 -6 -48 24 0 28 3 31 38 35 20 2
40 4 45 5 4 1 8 -10 8 -25z m-341 -24 c0 -33 -3 -40 -17 -37 -22 4 -30 57 -11
69 23 15 28 10 28 -32z m70 31 c0 -5 -8 -11 -17 -11 -16 -1 -16 -2 -1 -6 9 -2
19 -12 21 -21 3 -9 5 -2 6 16 1 29 4 32 31 32 38 0 40 -19 3 -21 l-28 -2 28
-4 c19 -3 27 -10 27 -24 0 -17 -7 -19 -60 -19 -33 0 -60 3 -61 8 0 4 -2 16 -4
26 -2 11 -2 23 1 28 7 12 54 10 54 -2z m170 -19 c0 -27 -3 -29 -45 -33 -45 -3
-45 -3 -45 29 0 32 1 33 45 33 43 0 45 -1 45 -29z"/>
<path d="M952 2383 c5 -25 28 -28 28 -4 0 12 -6 21 -16 21 -9 0 -14 -7 -12
-17z"/>
<path d="M948 2273 c9 -3 11 -18 6 -53 l-6 -49 33 -5 c90 -14 193 -21 284 -20
58 1 90 -2 75 -7 -19 -5 -14 -7 25 -8 28 -1 163 -10 300 -21 138 -11 256 -20
263 -20 7 0 12 14 12 35 0 20 -6 37 -12 39 -15 4 -277 34 -668 76 -151 16
-286 31 -300 33 -14 2 -19 2 -12 0z m64 -55 l1 -33 4 31 c4 27 7 30 33 26 27
-4 30 -8 30 -39 0 -34 -1 -35 -31 -29 -17 3 -46 6 -63 7 -30 1 -30 1 -6 9 17
5 19 8 8 9 -27 2 -25 51 2 51 16 0 20 -7 22 -32z m118 8 c0 -8 3 -21 6 -30 5
-12 0 -16 -20 -16 -22 0 -26 4 -26 30 0 23 4 30 20 30 11 0 20 -6 20 -14z m50
-5 c0 -5 3 -16 6 -25 4 -11 0 -16 -14 -16 -13 0 -21 8 -24 25 -4 19 -1 25 13
25 11 0 19 -4 19 -9z m70 -21 c0 -40 -29 -42 -31 -2 l-1 27 -8 -30 c-4 -16 -8
-25 -9 -20 -1 6 -4 20 -7 33 -6 19 -3 22 25 22 28 0 31 -3 31 -30z m36 13 c8
-11 13 -13 14 -5 0 8 15 12 43 11 23 0 36 -3 30 -6 -7 -2 -13 -16 -13 -29 0
-22 -4 -24 -50 -24 l-50 0 0 35 c0 39 6 43 26 18z m114 -28 c0 -16 -6 -25 -15
-25 -28 0 -18 40 13 49 1 1 2 -10 2 -24z m40 -16 c0 -26 -3 -29 -32 -28 -18 1
-25 3 -15 6 11 3 17 14 17 33 0 22 4 28 15 24 9 -4 15 -19 15 -35z m54 15 c12
-31 6 -44 -19 -44 -21 0 -25 5 -25 30 0 23 5 30 19 30 10 0 22 -7 25 -16z m58
-24 c6 -37 -15 -36 -21 1 l-4 24 -8 -25 -7 -25 -1 28 c-1 40 35 38 41 -3z m67
-2 l-1 -33 -8 30 -8 30 -1 -27 c-2 -47 -41 -30 -41 18 0 9 11 14 30 14 27 0
30 -3 29 -32z m52 22 c5 0 9 -11 9 -25 0 -28 -9 -31 -29 -12 -11 10 -13 10 -7
0 4 -7 2 -13 -3 -13 -6 0 -11 14 -11 31 0 24 3 30 16 25 9 -3 20 -6 25 -6z
m72 -27 c-3 -24 -2 -25 6 -8 9 19 10 19 10 -2 1 -20 -4 -23 -34 -23 -32 0 -35
2 -35 30 0 26 3 30 29 30 25 0 28 -3 24 -27z m67 -8 c2 17 3 16 10 -5 8 -24 8
-24 9 -2 1 21 31 33 31 13 0 -27 -15 -41 -41 -41 -25 0 -29 4 -28 28 0 24 1
25 9 7 9 -20 9 -20 10 0z m81 -12 c2 -25 2 -25 6 -5 6 28 27 24 31 -7 3 -19 0
-22 -25 -19 -22 2 -29 9 -31 31 -2 15 1 27 7 27 6 0 12 -12 12 -27z"/>
<path d="M1970 2125 c0 -32 2 -35 29 -35 26 0 30 4 34 33 l4 32 1 -32 c2 -40
32 -47 32 -8 0 35 15 31 18 -4 2 -30 2 -30 -55 -34 l-58 -3 63 -2 62 -2 0 39
c0 35 -3 39 -31 45 -17 3 -47 6 -65 6 -32 0 -34 -2 -34 -35z m42 5 c5 25 5 25
7 -2 1 -19 -4 -28 -14 -28 -10 0 -15 9 -14 28 l1 27 7 -25 8 -25 5 25z"/>
<path d="M1970 2028 c0 -27 2 -28 54 -28 40 0 55 4 60 16 11 29 6 32 -54 36
-60 3 -60 3 -60 -24z m100 -10 c0 -4 -19 -8 -42 -7 -29 0 -37 3 -24 8 24 9 66
9 66 -1z"/>
<path d="M950 1935 c0 -14 4 -25 9 -25 5 0 7 9 4 20 -5 17 0 20 31 20 32 0 36
-3 36 -25 0 -20 -5 -25 -27 -26 -28 -2 -28 -2 -3 -6 14 -3 28 -10 32 -17 4 -6
8 8 8 32 0 41 1 42 33 42 40 0 46 -5 40 -30 -3 -12 -16 -20 -37 -23 -22 -3
-17 -4 18 -5 46 -2 48 -1 44 23 -5 24 -3 25 43 25 42 0 49 -3 49 -19 0 -16 -8
-21 -42 -24 -24 -2 -6 -4 40 -5 79 -2 82 -1 81 21 -1 16 -2 18 -6 5 -7 -27
-63 -25 -63 2 0 19 7 20 132 20 72 0 129 2 127 4 -2 2 -127 6 -276 10 l-273 7
0 -26z"/>
<path d="M1502 1918 c-5 -21 -6 -21 -13 -2 -7 16 -8 17 -8 2 -1 -14 -10 -18
-35 -18 -24 0 -36 5 -39 18 -4 16 -5 16 -6 0 0 -10 -5 -18 -10 -18 -5 0 -12 8
-14 18 -4 15 -5 15 -6 0 -1 -10 -12 -18 -28 -21 -16 -2 18 -5 74 -6 97 -1 101
0 96 19 -4 15 0 20 15 20 13 0 22 -8 25 -22 l4 -23 2 23 c1 30 51 32 51 2 0
-16 7 -20 35 -20 28 0 35 4 35 20 0 18 8 20 133 23 93 2 68 3 -86 5 -218 2
-219 2 -225 -20z m168 -1 c0 -7 -11 -14 -25 -15 -16 -1 -25 3 -25 13 0 9 10
15 25 15 14 0 25 -6 25 -13z"/>
<path d="M1972 1903 l3 -38 55 0 55 0 3 38 3 37 -61 0 -61 0 3 -37z m99 -3 c9
-24 8 -24 -6 -6 -8 11 -15 14 -15 8 0 -7 -12 -12 -27 -11 l-28 1 25 8 25 8
-28 1 c-17 1 -26 5 -22 12 4 5 21 9 37 7 22 -2 33 -10 39 -28z"/>
<path d="M1690 1898 c0 -5 25 -8 55 -8 30 0 55 4 55 8 0 4 -25 7 -55 7 -30 0
-55 -3 -55 -7z"/>
<path d="M956 1873 c1 -16 3 -38 3 -49 1 -18 8 -23 41 -26 38 -3 40 -2 40 24
0 25 3 28 35 28 31 0 35 -3 35 -25 0 -18 4 -23 15 -19 8 4 15 17 15 30 0 23
-2 24 -85 24 -78 0 -85 2 -85 20 0 11 -4 20 -8 20 -4 0 -7 -12 -6 -27z m74
-43 c0 -16 -7 -20 -30 -20 -23 0 -30 4 -30 20 0 16 7 20 30 20 23 0 30 -4 30
-20z"/>
<path d="M1231 1866 c-1 -13 -6 -17 -21 -13 -11 3 -20 1 -20 -4 0 -5 9 -9 19
-9 12 0 21 -8 24 -22 l4 -23 2 22 c1 22 5 22 124 26 l122 3 -122 2 c-106 2
-122 4 -126 20 -4 15 -5 15 -6 -2z"/>
<path d="M1972 1730 c3 -39 7 -72 9 -74 2 -2 28 -1 57 1 43 5 52 9 52 25 0 18
-1 18 -16 4 -8 -9 -31 -16 -50 -16 -27 0 -34 4 -34 20 0 16 7 20 34 20 56 0
66 8 66 51 l0 39 -61 0 -62 0 5 -70z m108 30 c0 -26 -4 -30 -30 -31 -16 -1
-35 -2 -42 -3 -6 -1 -13 5 -15 11 -7 19 27 29 38 12 6 -10 9 -10 9 -2 0 7 7
10 15 7 8 -4 15 -1 15 5 0 6 -18 11 -41 11 -24 0 -38 4 -34 10 3 6 24 10 46
10 37 0 39 -2 39 -30z"/>
<path d="M1760 1760 c0 -5 -26 -11 -57 -13 l-58 -3 63 -2 c49 -2 62 1 62 13 0
8 -2 15 -5 15 -3 0 -5 -4 -5 -10z"/>
<path d="M1125 1613 c-22 -8 -76 -20 -120 -28 -66 -12 -70 -14 -23 -10 80 7
152 24 174 40 22 17 21 17 -31 -2z"/>
<path d="M796 908 c-9 -12 -16 -33 -16 -46 0 -25 41 -72 63 -72 42 0 52 82 14
118 -29 28 -42 28 -61 0z m56 -32 c11 -16 10 -64 -2 -71 -19 -12 -50 15 -50
44 0 15 2 30 5 33 9 9 40 5 47 -6z"/>
<path d="M810 859 c0 -15 7 -32 15 -39 25 -21 29 -3 6 32 l-21 33 0 -26z"/>
<path d="M2030 1359 c-231 -37 -315 -52 -334 -60 -16 -7 -13 -8 14 -4 190 31
421 65 446 65 24 0 33 -5 38 -22 4 -17 8 -20 17 -11 6 6 9 19 6 27 -7 18 -91
20 -187 5z"/>
<path d="M2083 1328 c-48 -23 -8 -65 50 -52 48 10 51 14 26 40 -24 26 -42 29
-76 12z"/>
<path d="M1891 1284 c-40 -7 -75 -15 -77 -17 -3 -2 4 -14 14 -27 18 -22 20
-22 103 -11 107 16 123 24 90 51 -26 23 -29 23 -130 4z"/>
<path d="M1585 1275 c-24 -9 -240 -37 -350 -46 -121 -9 -303 -34 -313 -43 -8
-9 37 -95 55 -104 12 -6 131 10 363 49 190 33 356 63 369 67 l24 8 -33 37
c-26 30 -39 37 -69 36 -20 0 -40 -2 -46 -4z m82 -41 c3 3 0 14 -8 23 -11 15
-10 15 9 -1 12 -11 22 -22 22 -25 0 -15 -44 -9 -56 7 -21 27 -16 34 7 11 11
-11 23 -18 26 -15z m-47 -31 c0 5 -7 15 -15 23 -8 9 -15 21 -15 27 0 7 7 4 14
-5 7 -10 26 -25 42 -33 20 -11 23 -15 9 -13 -11 1 -26 -2 -34 -7 -10 -5 -16
-4 -19 3 -2 7 -10 12 -18 12 -9 0 -13 -4 -9 -9 3 -5 0 -13 -6 -17 -8 -4 -9 -3
-5 4 4 7 -3 17 -18 24 -14 6 -26 17 -26 25 0 18 17 16 24 -3 3 -8 11 -12 17
-8 8 5 9 3 4 -6 -5 -9 -4 -11 4 -6 6 4 9 12 5 17 -3 5 -10 7 -15 4 -11 -7 -12
8 -2 19 4 4 20 -8 35 -26 15 -18 28 -29 28 -25z m-102 6 c21 -26 22 -30 7 -35
-11 -5 -29 5 -53 30 l-37 36 30 -1 c21 0 37 -9 53 -30z m-88 12 c0 -5 -6 -12
-12 -15 -7 -3 -4 -4 8 -1 13 3 27 -2 38 -14 17 -18 17 -19 -4 -26 -20 -6 -58
17 -82 50 -4 5 -10 7 -13 3 -3 -3 6 -19 20 -36 l26 -31 -35 1 c-26 1 -40 9
-56 30 -11 16 -25 26 -30 23 -5 -3 -11 -1 -14 4 -4 6 7 8 25 6 18 -3 39 0 48
5 21 12 81 13 81 1z m-215 -11 c4 -6 11 -7 17 -4 7 5 9 2 5 -8 -3 -9 1 -26 10
-37 8 -12 12 -25 9 -29 -10 -9 -41 13 -41 29 0 8 -7 14 -15 14 -8 0 -15 5 -15
10 0 6 -4 16 -8 23 -6 8 -2 12 12 12 11 0 23 -5 26 -10z m-36 -37 c17 -21 31
-41 31 -46 0 -4 -18 -5 -40 -2 -22 3 -40 2 -40 -3 0 -9 -128 -38 -134 -31 -43
57 -55 78 -48 83 6 3 17 -5 26 -19 13 -20 21 -23 39 -16 12 4 28 6 35 4 19 -7
3 -23 -24 -23 -13 0 -24 -5 -24 -11 0 -7 14 -8 43 -4 23 4 43 9 45 10 2 2 -14
19 -35 39 l-38 35 40 1 c22 1 49 5 60 10 30 13 31 13 64 -27z m136 -21 c3 3
-1 11 -10 18 -8 7 -15 18 -15 24 0 12 39 -34 40 -46 0 -10 -42 -10 -55 0 -5 4
-17 16 -25 27 -14 19 -14 19 3 6 17 -13 24 -4 10 15 -5 5 4 -4 19 -20 15 -16
30 -27 33 -24z"/>
<path d="M2187 1143 c-15 -14 -7 -43 12 -43 26 0 36 17 21 35 -14 16 -23 19
-33 8z"/>
<path d="M2080 1131 c-18 -5 -24 -13 -22 -27 5 -26 5 -26 56 -19 40 6 46 10
46 31 0 20 -5 24 -27 23 -16 -1 -39 -4 -53 -8z"/>
<path d="M1928 1113 c-19 -5 -23 -29 -9 -51 5 -9 19 -11 43 -7 49 9 61 19 53
44 -6 21 -40 26 -87 14z"/>
<path d="M1806 1089 c-42 -10 -587 -107 -674 -120 -30 -4 -56 -10 -59 -13 -10
-9 7 -57 22 -62 13 -5 551 93 728 133 65 14 68 16 65 41 -3 31 -22 35 -82 21z
m69 -20 c4 -6 5 -12 3 -14 -6 -6 -670 -135 -695 -135 -7 0 -13 9 -13 19 0 23
-9 20 340 81 129 23 251 45 270 49 50 13 88 13 95 0z m-736 -129 c17 9 21 8
21 -5 0 -34 -57 -29 -69 6 -3 12 -2 12 12 1 12 -10 21 -11 36 -2z"/>
</g>
</svg>
